<svg width="648" height="184" viewBox="0 0 648 184" fill="none" xmlns="http://www.w3.org/2000/svg">
<path d="M93.6143 137.055C93.6143 132.253 92.9632 127.981 91.6611 124.237C90.359 120.412 88.2025 116.994 85.1914 113.983C82.1803 110.972 78.0706 108.165 72.8623 105.561C67.7354 102.875 61.3877 100.23 53.8193 97.626C46.3324 95.1032 39.5778 92.3363 33.5557 89.3252C27.6149 86.3141 22.488 82.8555 18.1748 78.9492C13.943 75.043 10.6878 70.4857 8.40918 65.2773C6.21191 60.069 5.11328 53.9655 5.11328 46.9668C5.11328 40.0495 6.33398 33.7832 8.77539 28.168C11.2982 22.4714 14.7975 17.5885 19.2734 13.5195C23.7493 9.45052 29.0391 6.31738 35.1426 4.12012C41.2461 1.92285 48.0007 0.824219 55.4062 0.824219C65.9857 0.824219 75.1003 3.22493 82.75 8.02637C90.4811 12.7464 96.4219 19.1348 100.572 27.1914C104.723 35.1667 106.798 44.0778 106.798 53.9248H92.8818C92.8818 46.1937 91.417 39.3171 88.4873 33.2949C85.639 27.2728 81.4072 22.5527 75.792 19.1348C70.2581 15.6354 63.5036 13.8857 55.5283 13.8857C47.5531 13.8857 40.8392 15.3913 35.3867 18.4023C30.0156 21.332 25.9873 25.279 23.3018 30.2432C20.6162 35.126 19.2734 40.5378 19.2734 46.4785C19.2734 50.7103 19.9245 54.6165 21.2266 58.1973C22.5286 61.778 24.6852 65.0739 27.6963 68.085C30.7887 71.096 34.8577 73.9443 39.9033 76.6299C44.9489 79.234 51.0524 81.6755 58.2139 83.9541C66.2705 86.5583 73.3506 89.4473 79.4541 92.6211C85.639 95.7135 90.8066 99.3757 94.957 103.607C99.1888 107.758 102.363 112.559 104.479 118.012C106.676 123.464 107.774 129.73 107.774 136.811C107.774 144.135 106.513 150.686 103.99 156.464C101.467 162.16 97.8867 167.043 93.248 171.112C88.6094 175.1 83.1569 178.152 76.8906 180.268C70.6243 182.383 63.707 183.441 56.1387 183.441C49.5469 183.441 42.9144 182.424 36.2412 180.39C29.6494 178.355 23.6273 175.181 18.1748 170.868C12.8037 166.555 8.49056 161.021 5.23535 154.267C1.98014 147.512 0.352539 139.455 0.352539 130.097H14.3906C14.3906 137.502 15.6113 143.809 18.0527 149.018C20.5755 154.145 23.8307 158.295 27.8184 161.469C31.806 164.561 36.2819 166.84 41.2461 168.305C46.2103 169.688 51.2152 170.38 56.2607 170.38C63.9105 170.38 70.5023 168.996 76.0361 166.229C81.6514 163.463 85.9645 159.597 88.9756 154.633C92.068 149.587 93.6143 143.728 93.6143 137.055ZM228.746 3.26562H242.662V128.51C242.662 141.856 240.261 152.558 235.46 160.614C230.74 168.59 224.352 174.408 216.295 178.07C208.32 181.732 199.49 183.563 189.806 183.563C179.877 183.563 170.925 181.773 162.95 178.192C154.975 174.53 148.668 168.671 144.029 160.614C139.391 152.558 137.071 141.856 137.071 128.51V3.26562H150.987V128.51C150.987 138.845 152.656 147.105 155.992 153.29C159.329 159.394 163.927 163.788 169.786 166.474C175.646 169.159 182.319 170.502 189.806 170.502C197.455 170.502 204.169 169.159 209.947 166.474C215.807 163.707 220.405 159.271 223.741 153.168C227.078 147.064 228.746 138.845 228.746 128.51V3.26562ZM333.727 108.734H291.612V95.5508H333.727C342.434 95.5508 349.474 93.8418 354.845 90.4238C360.216 86.9245 364.122 82.2451 366.563 76.3857C369.086 70.445 370.348 63.8125 370.348 56.4883C370.348 49.3268 369.086 42.6943 366.563 36.5908C364.122 30.4873 360.216 25.6045 354.845 21.9424C349.474 18.1989 342.434 16.3271 333.727 16.3271H296.129V181H282.091V3.26562H333.727C344.713 3.26562 353.95 5.50358 361.437 9.97949C369.005 14.4554 374.701 20.681 378.526 28.6562C382.433 36.6315 384.386 45.8682 384.386 56.3662C384.386 67.2712 382.433 76.6706 378.526 84.5645C374.701 92.377 369.005 98.3584 361.437 102.509C353.95 106.659 344.713 108.734 333.727 108.734ZM509.996 167.938V181H426.988V167.938H509.996ZM430.895 3.26562V181H416.856V3.26562H430.895ZM499.62 82.7334V95.917H426.988V82.7334H499.62ZM509.386 3.26562V16.3271H426.988V3.26562H509.386ZM541.124 3.26562H589.83C600.328 3.26562 609.361 5.30013 616.93 9.36914C624.579 13.3568 630.439 19.2568 634.508 27.0693C638.658 34.8005 640.733 44.3219 640.733 55.6338C640.733 64.016 639.269 71.625 636.339 78.4609C633.409 85.2969 629.34 90.9935 624.132 95.5508C619.005 100.108 612.983 103.241 606.065 104.95L601.427 107.025H550.646L550.401 93.9639H592.149C599.881 93.9639 606.31 92.1735 611.437 88.5928C616.563 84.9307 620.388 80.2106 622.911 74.4326C625.515 68.5732 626.817 62.307 626.817 55.6338C626.817 47.5771 625.393 40.6191 622.545 34.7598C619.778 28.9004 615.628 24.3838 610.094 21.21C604.641 17.9548 597.887 16.3271 589.83 16.3271H555.162V181H541.124V3.26562ZM632.311 181L594.103 101.41L608.995 101.288L647.203 179.413V181H632.311Z" fill="white"/>
</svg>
